<svg 
 xmlns="http://www.w3.org/2000/svg"
 xmlns:xlink="http://www.w3.org/1999/xlink"
 width="21px" height="27px">
<defs>
<filter filterUnits="userSpaceOnUse" id="Filter_0" x="0px" y="0px" width="21px" height="27px"  >
    <feOffset in="SourceAlpha" dx="0" dy="1" />
    <feGaussianBlur result="blurOut" stdDeviation="0" />
    <feFlood flood-color="rgb(255, 255, 255)" result="floodOut" />
    <feComposite operator="atop" in="floodOut" in2="blurOut" />
    <feComponentTransfer><feFuncA type="linear" slope="1"/></feComponentTransfer>
    <feMerge>
    <feMergeNode/>
    <feMergeNode in="SourceGraphic"/>
  </feMerge>
</filter>
<filter id="Filter_1">
    <feFlood flood-color="rgb(125, 125, 125)" flood-opacity="1" result="floodOut" />
    <feComposite operator="atop" in="floodOut" in2="SourceGraphic" result="compOut" />
    <feBlend mode="normal" in="compOut" in2="SourceGraphic" />
</filter>

</defs>
<g filter="url(#Filter_0)">
<g filter="url(#Filter_1)">
<path fill-rule="evenodd"  fill="rgb(255, 255, 255)"
 d="M19.617,26.000 L1.457,26.000 C1.086,26.000 0.785,25.694 0.785,25.316 L0.785,0.684 C0.785,0.306 1.086,0.000 1.457,0.000 L13.564,0.000 C13.564,0.000 13.565,0.000 13.566,0.000 C13.566,0.000 13.566,0.000 13.566,0.000 C13.749,0.000 13.915,0.076 14.036,0.197 L14.036,0.197 C14.036,0.197 14.036,0.197 14.036,0.197 L14.036,0.198 C14.037,0.198 14.037,0.198 14.037,0.198 C14.037,0.198 14.037,0.199 14.038,0.199 L14.038,0.199 C14.038,0.199 14.038,0.200 14.038,0.200 C14.039,0.200 14.039,0.200 14.039,0.200 L20.092,6.358 C20.093,6.358 20.093,6.359 20.093,6.359 C20.094,6.359 20.094,6.360 20.094,6.360 L20.094,6.360 C20.094,6.360 20.094,6.360 20.095,6.361 C20.095,6.361 20.095,6.361 20.095,6.361 L20.095,6.361 C20.096,6.362 20.096,6.362 20.096,6.362 L20.096,6.362 C20.215,6.485 20.289,6.654 20.289,6.840 C20.289,6.840 20.289,6.841 20.289,6.841 C20.289,6.841 20.289,6.842 20.289,6.842 L20.289,25.316 C20.289,25.694 19.988,26.000 19.617,26.000 ZM2.130,24.632 L18.944,24.632 L18.944,7.526 L13.564,7.526 C13.192,7.526 12.891,7.220 12.891,6.842 L12.891,1.369 L2.130,1.369 L2.130,24.632 ZM14.236,6.158 L17.993,6.158 L14.236,2.336 L14.236,6.158 ZM16.590,20.868 L4.484,20.868 C4.112,20.868 3.811,20.562 3.811,20.184 C3.811,19.806 4.112,19.500 4.484,19.500 L16.590,19.500 C16.962,19.500 17.263,19.806 17.263,20.184 C17.263,20.562 16.962,20.868 16.590,20.868 ZM16.590,17.790 L4.484,17.790 C4.112,17.790 3.811,17.483 3.811,17.105 C3.811,16.727 4.112,16.421 4.484,16.421 L16.590,16.421 C16.962,16.421 17.263,16.727 17.263,17.105 C17.263,17.483 16.962,17.790 16.590,17.790 ZM10.537,14.711 L4.484,14.711 C4.112,14.711 3.811,14.404 3.811,14.026 C3.811,13.649 4.112,13.342 4.484,13.342 L10.537,13.342 C10.908,13.342 11.210,13.649 11.210,14.026 C11.210,14.404 10.908,14.711 10.537,14.711 ZM10.064,7.526 L4.484,7.526 C4.112,7.526 3.811,7.220 3.811,6.842 L3.811,3.763 C3.811,3.385 4.112,3.079 4.484,3.079 L10.064,3.079 C10.435,3.079 10.737,3.385 10.737,3.763 L10.737,6.842 C10.737,7.220 10.435,7.526 10.064,7.526 ZM5.156,6.158 L9.392,6.158 L9.392,4.447 L5.156,4.447 L5.156,6.158 Z"/>
</g></g>
</svg>