<svg 
 xmlns="http://www.w3.org/2000/svg"
 xmlns:xlink="http://www.w3.org/1999/xlink"
 width="143px" height="143px">
<path fill-rule="evenodd"  fill="rgb(255, 255, 255)"
 d="M71.399,143.000 C32.030,143.000 0.000,110.925 0.000,71.500 C0.000,32.075 32.030,0.000 71.399,0.000 C110.768,0.000 142.798,32.075 142.798,71.500 C142.798,110.925 110.768,143.000 71.399,143.000 ZM71.399,7.526 C36.173,7.526 7.516,36.225 7.516,71.500 C7.516,106.775 36.173,135.474 71.399,135.474 C106.625,135.474 135.282,106.775 135.282,71.500 C135.282,36.225 106.625,7.526 71.399,7.526 ZM71.399,126.066 C41.355,126.066 16.910,101.588 16.910,71.500 C16.910,41.412 41.355,16.934 71.399,16.934 C101.443,16.934 125.888,41.412 125.888,71.500 C125.888,101.588 101.443,126.066 71.399,126.066 ZM71.399,24.461 C45.498,24.461 24.426,45.562 24.426,71.500 C24.426,97.438 45.498,118.540 71.399,118.540 C97.300,118.540 118.372,97.438 118.372,71.500 C118.372,45.562 97.300,24.461 71.399,24.461 ZM88.309,75.263 L71.399,75.263 C69.324,75.263 67.641,73.579 67.641,71.500 L67.641,54.566 C67.641,52.488 69.324,50.803 71.399,50.803 C73.474,50.803 75.157,52.488 75.157,54.566 L75.157,67.737 L88.309,67.737 C90.384,67.737 92.067,69.422 92.067,71.500 C92.067,73.579 90.384,75.263 88.309,75.263 Z"/>
</svg>