<svg 
 xmlns="http://www.w3.org/2000/svg"
 xmlns:xlink="http://www.w3.org/1999/xlink"
 width="143px" height="143px">
<path fill-rule="evenodd"  fill="rgb(255, 255, 255)"
 d="M71.601,143.002 C71.585,143.002 71.568,143.002 71.554,143.002 C70.941,142.993 70.363,142.839 69.853,142.571 L2.290,108.767 C1.017,108.130 0.213,106.827 0.213,105.404 L0.213,37.803 C0.202,37.249 0.312,36.684 0.560,36.149 C0.585,36.095 0.613,36.041 0.640,35.986 C1.026,35.248 1.624,34.690 2.323,34.349 L36.069,17.465 C36.091,17.453 36.114,17.441 36.138,17.430 L69.921,0.527 C70.977,-0.002 72.225,-0.002 73.282,0.527 L140.876,34.347 C141.577,34.687 142.177,35.247 142.562,35.987 C142.589,36.041 142.617,36.095 142.643,36.149 C142.890,36.684 143.000,37.249 142.990,37.803 L142.990,105.404 C142.990,106.827 142.186,108.130 140.912,108.767 L73.350,142.571 C72.840,142.839 72.262,142.993 71.649,143.002 C71.634,143.002 71.618,143.002 71.601,143.002 ZM75.359,73.889 L75.359,133.159 L135.475,103.080 L135.475,43.811 L107.134,57.991 C107.112,58.003 107.088,58.015 107.064,58.026 L75.359,73.889 ZM7.728,103.080 L67.844,133.159 L67.844,73.889 L7.728,43.811 L7.728,103.080 ZM12.371,37.728 L71.601,67.363 L97.016,54.647 L37.786,25.012 L12.371,37.728 ZM46.186,20.809 L105.417,50.444 L130.831,37.728 L71.601,8.093 L46.186,20.809 ZM54.694,109.164 C54.119,109.164 53.543,109.032 53.013,108.767 L19.198,91.848 C17.924,91.211 17.121,89.908 17.121,88.485 L17.121,71.566 C17.121,70.262 17.796,69.052 18.902,68.368 C20.012,67.682 21.394,67.620 22.559,68.202 L56.374,85.121 C57.647,85.759 58.451,87.061 58.451,88.485 L58.451,105.404 C58.451,106.707 57.776,107.917 56.669,108.602 C56.066,108.975 55.380,109.164 54.694,109.164 ZM24.635,86.162 L50.936,99.321 L50.936,90.808 L24.635,77.649 L24.635,86.162 Z"/>
</svg>