<svg xmlns="http://www.w3.org/2000/svg" width="23" height="23" viewBox="0 0 23 23">
  <defs>
    <style>
      .cls-1 {
        fill: #701dbb;
        fill-rule: evenodd;
      }
    </style>
  </defs>
  <path id="clock_" data-name="clock " class="cls-1" d="M1219.5,59.988a11.5,11.5,0,1,1-11.5,11.5A11.5,11.5,0,0,1,1219.5,59.988Zm-0.09,2.236a9.288,9.288,0,1,1-9.29,9.289A9.29,9.29,0,0,1,1219.41,62.224Zm2.68,11.573h-3.51a0.882,0.882,0,0,1-.88-0.875V67.595a0.88,0.88,0,0,1,1.76,0v4.451h2.63A0.876,0.876,0,1,1,1222.09,73.8Z" transform="translate(-1208 -60)"/>
</svg>
