<svg 
 xmlns="http://www.w3.org/2000/svg"
 xmlns:xlink="http://www.w3.org/1999/xlink"
 width="26px" height="27px">
<defs>
<filter filterUnits="userSpaceOnUse" id="Filter_0" x="0px" y="0px" width="26px" height="27px"  >
    <feOffset in="SourceAlpha" dx="0" dy="1" />
    <feGaussianBlur result="blurOut" stdDeviation="0" />
    <feFlood flood-color="rgb(255, 255, 255)" result="floodOut" />
    <feComposite operator="atop" in="floodOut" in2="blurOut" />
    <feComponentTransfer><feFuncA type="linear" slope="1"/></feComponentTransfer>
    <feMerge>
    <feMergeNode/>
    <feMergeNode in="SourceGraphic"/>
  </feMerge>
</filter>
<filter id="Filter_1">
    <feFlood flood-color="rgb(125, 125, 125)" flood-opacity="1" result="floodOut" />
    <feComposite operator="atop" in="floodOut" in2="SourceGraphic" result="compOut" />
    <feBlend mode="normal" in="compOut" in2="SourceGraphic" />
</filter>

</defs>
<g filter="url(#Filter_0)">
<g filter="url(#Filter_1)">
<path fill-rule="evenodd"  fill="rgb(255, 255, 255)"
 d="M12.785,26.000 C5.739,26.000 0.006,20.168 0.006,13.000 C0.006,5.832 5.739,0.000 12.785,0.000 C19.832,0.000 25.564,5.832 25.564,13.000 C25.564,20.168 19.832,26.000 12.785,26.000 ZM18.157,20.015 C17.284,22.024 16.132,23.440 15.146,24.382 C17.178,23.947 19.014,22.960 20.494,21.583 C19.936,21.131 19.138,20.552 18.157,20.015 ZM5.046,21.555 C6.531,22.946 8.378,23.944 10.425,24.382 C9.416,23.419 8.234,21.959 7.355,19.878 C6.592,20.315 5.821,20.868 5.046,21.555 ZM13.458,18.507 L13.458,24.053 C14.424,23.299 15.900,21.843 16.942,19.423 C15.907,18.980 14.731,18.629 13.458,18.507 ZM8.565,19.274 C9.609,21.783 11.127,23.284 12.113,24.053 L12.113,18.468 C10.981,18.512 9.790,18.753 8.565,19.274 ZM18.631,18.775 C19.825,19.405 20.782,20.095 21.425,20.610 C23.027,18.731 24.048,16.324 24.200,13.684 L19.500,13.684 C19.438,15.653 19.110,17.340 18.631,18.775 ZM1.371,13.684 C1.521,16.305 2.528,18.696 4.110,20.570 C5.037,19.740 5.962,19.087 6.876,18.583 C6.432,17.190 6.129,15.566 6.070,13.684 L1.371,13.684 ZM13.458,17.167 C14.899,17.301 16.232,17.694 17.403,18.191 C17.813,16.916 18.095,15.423 18.154,13.684 L13.458,13.684 L13.458,17.167 ZM7.416,13.684 C7.472,15.331 7.728,16.759 8.104,17.989 C9.486,17.412 10.833,17.156 12.113,17.122 L12.113,13.684 L7.416,13.684 ZM19.500,12.316 L24.200,12.316 C24.049,9.695 23.042,7.304 21.460,5.431 C20.533,6.260 19.609,6.913 18.694,7.417 C19.138,8.810 19.441,10.434 19.500,12.316 ZM13.458,12.316 L18.154,12.316 C18.098,10.669 17.842,9.241 17.467,8.012 C16.085,8.588 14.738,8.844 13.458,8.878 L13.458,12.316 ZM7.416,12.316 L12.113,12.316 L12.113,8.833 C10.671,8.699 9.338,8.306 8.167,7.809 C7.757,9.084 7.475,10.577 7.416,12.316 ZM1.371,12.316 L6.070,12.316 C6.132,10.347 6.461,8.660 6.939,7.225 C5.746,6.595 4.788,5.905 4.145,5.389 C2.543,7.269 1.522,9.676 1.371,12.316 ZM13.458,1.947 L13.458,7.532 C14.590,7.489 15.780,7.248 17.005,6.726 C15.961,4.217 14.443,2.716 13.458,1.947 ZM8.628,6.577 C9.663,7.021 10.839,7.371 12.113,7.493 L12.113,1.947 C11.147,2.701 9.670,4.157 8.628,6.577 ZM15.146,1.618 C16.154,2.581 17.336,4.041 18.216,6.122 C18.978,5.685 19.749,5.132 20.524,4.445 C19.039,3.054 17.192,2.056 15.146,1.618 ZM5.077,4.417 C5.635,4.869 6.432,5.448 7.413,5.985 C8.286,3.976 9.439,2.560 10.425,1.618 C8.392,2.053 6.556,3.040 5.077,4.417 Z"/>
</g></g>
</svg>