<svg xmlns="http://www.w3.org/2000/svg" xmlns:xlink="http://www.w3.org/1999/xlink" width="25.562" height="27" viewBox="0 0 25.562 27">
  <defs>
    <style>
      .cls-1 {
        fill: #fff;
        fill-rule: evenodd;
        filter: url(#filter);
      }
    </style>
    <filter id="filter" x="377" y="147" width="25.562" height="27" filterUnits="userSpaceOnUse">
      <feOffset result="offset" dy="1" in="SourceAlpha"/>
      <feGaussianBlur result="blur"/>
      <feFlood result="flood" flood-color="#fff"/>
      <feComposite result="composite" operator="in" in2="blur"/>
      <feBlend result="blend" in="SourceGraphic"/>
      <feFlood result="flood-2" flood-color="#7d7d7d"/>
      <feComposite result="composite-2" operator="in" in2="SourceGraphic"/>
      <feBlend result="blend-2" in2="blend"/>
    </filter>
  </defs>
  <path class="cls-1" d="M389.785,173a13,13,0,1,1,12.779-13A12.906,12.906,0,0,1,389.785,173Zm5.372-5.985a13.38,13.38,0,0,1-3.011,4.367,11.341,11.341,0,0,0,5.348-2.8A15.843,15.843,0,0,0,395.157,167.015Zm-13.111,1.54a11.345,11.345,0,0,0,5.379,2.827,13.394,13.394,0,0,1-3.07-4.5A13.918,13.918,0,0,0,382.046,168.555Zm8.412-3.048v5.546a11.7,11.7,0,0,0,3.484-4.63A11.719,11.719,0,0,0,390.458,165.507Zm-4.893.767a11.731,11.731,0,0,0,3.548,4.779v-5.585A9.994,9.994,0,0,0,385.565,166.274Zm10.066-.5a17.84,17.84,0,0,1,2.794,1.835,11.694,11.694,0,0,0,2.775-6.926h-4.7A17.767,17.767,0,0,1,395.631,165.775Zm-17.26-5.091a11.692,11.692,0,0,0,2.739,6.886,15.052,15.052,0,0,1,2.766-1.987,17.905,17.905,0,0,1-.806-4.9h-4.7Zm12.087,3.483a13.275,13.275,0,0,1,3.945,1.024,16.48,16.48,0,0,0,.751-4.507h-4.7v3.483Zm-6.042-3.483a16.6,16.6,0,0,0,.688,4.305,11.093,11.093,0,0,1,4.009-.867v-3.438h-4.7Zm12.084-1.368h4.7a11.694,11.694,0,0,0-2.74-6.885,15.058,15.058,0,0,1-2.766,1.986A17.905,17.905,0,0,1,396.5,159.316Zm-6.042,0h4.7a16.631,16.631,0,0,0-.687-4.3,11.111,11.111,0,0,1-4.009.866v3.438Zm-6.042,0h4.7v-3.483a13.274,13.274,0,0,1-3.946-1.024A16.48,16.48,0,0,0,384.416,159.316Zm-6.045,0h4.7a17.8,17.8,0,0,1,.869-5.091,17.811,17.811,0,0,1-2.794-1.836A11.692,11.692,0,0,0,378.371,159.316Zm12.087-10.369v5.585a9.946,9.946,0,0,0,3.547-.806A11.739,11.739,0,0,0,390.458,148.947Zm-4.83,4.63a11.688,11.688,0,0,0,3.485.916v-5.546A11.7,11.7,0,0,0,385.628,153.577Zm6.518-4.959a13.423,13.423,0,0,1,3.07,4.5,13.954,13.954,0,0,0,2.308-1.677A11.347,11.347,0,0,0,392.146,148.618Zm-10.069,2.8a15.826,15.826,0,0,0,2.336,1.568,13.38,13.38,0,0,1,3.012-4.367A11.331,11.331,0,0,0,382.077,151.417Z" transform="translate(-377 -147)"/>
</svg>
