<svg xmlns="http://www.w3.org/2000/svg" width="76" height="75.91" viewBox="0 0 76 75.91">
  <defs>
    <style>
      .cls-1 {
        fill: #6d6d6d;
        fill-rule: evenodd;
      }
    </style>
  </defs>
  <path class="cls-1" d="M1088,1193h-0.03a1.971,1.971,0,0,1-.9-0.23l-35.96-17.96a1.991,1.991,0,0,1-1.1-1.79v-35.93a1.985,1.985,0,0,1,.18-0.88,0.594,0.594,0,0,1,.04-0.08,1.988,1.988,0,0,1,.9-0.87l17.96-8.98a0.142,0.142,0,0,0,.04-0.02l17.98-8.98a1.991,1.991,0,0,1,1.78,0l35.98,17.97a2.012,2.012,0,0,1,.9.88,0.594,0.594,0,0,1,.04.08,1.985,1.985,0,0,1,.18.88v35.93a1.991,1.991,0,0,1-1.1,1.79l-35.96,17.96a1.971,1.971,0,0,1-.9.23H1088Zm2-36.73v31.5l31.99-15.99v-31.5l-15.08,7.54a0.147,0.147,0,0,1-.04.02Zm-35.99,15.51,31.99,15.99v-31.5l-31.99-15.99v31.5Zm2.47-34.73L1088,1152.8l13.53-6.76L1070,1130.29Zm17.99-8.99,31.53,15.75,13.52-6.76L1088,1121.3Zm4.53,46.96a2.005,2.005,0,0,1-.89-0.21l-18-9a1.985,1.985,0,0,1-1.11-1.78v-9a2.006,2.006,0,0,1,2.9-1.78l18,8.99a2.009,2.009,0,0,1,1.1,1.79v8.99a2.009,2.009,0,0,1-.95,1.7A1.968,1.968,0,0,1,1079,1175.02Zm-16-12.23,14,7v-4.53l-14-6.99v4.52Z" transform="translate(-1050 -1117.09)"/>
</svg>
