<svg xmlns="http://www.w3.org/2000/svg" width="83.219" height="50.19" viewBox="0 0 83.219 50.19">
  <defs>
    <style>
      .cls-1 {
        fill: #6d6d6d;
        fill-rule: evenodd;
      }
    </style>
  </defs>
  <path class="cls-1" d="M739.19,1179.98a1.913,1.913,0,0,1-1.107-.34,15.805,15.805,0,0,1-4.307-21.81A15.636,15.636,0,0,1,748,1150.85a2.024,2.024,0,0,1-.02-0.81,24.473,24.473,0,0,1,10.086-15.86,24.113,24.113,0,0,1,18.269-4.03,24.481,24.481,0,0,1,18.6,15.59,1.9,1.9,0,0,1,.9-0.17,19.212,19.212,0,0,1,15.061,8.26,18.167,18.167,0,0,1,3.214,13.86,19.061,19.061,0,0,1-7.948,11.85,2.034,2.034,0,0,1-1.146.36l-65.815.08h0Zm7.625-25.16a12.161,12.161,0,0,0-2.318.23,11.618,11.618,0,0,0-7.4,5,11.783,11.783,0,0,0,2.723,15.91l64.535-.07a14.916,14.916,0,0,0,5.83-8.95,14.01,14.01,0,0,0-2.56-10.8,15.264,15.264,0,0,0-11.607-6.54,24.655,24.655,0,0,1,.456,4.6,2,2,0,0,1-1.983,2.02h-0.011a2,2,0,0,1-2-2,20.538,20.538,0,0,0-16.852-20.12,20.167,20.167,0,0,0-15.286,3.38,20.448,20.448,0,0,0-8.44,13.27,1.949,1.949,0,0,1-.336.8,15.76,15.76,0,0,1,3.863,1.89,2.023,2.023,0,0,1,.554,2.79,1.984,1.984,0,0,1-2.767.55A11.469,11.469,0,0,0,746.815,1154.82Zm38.3-2.67a2.006,2.006,0,0,1-1.99-1.91,8.823,8.823,0,0,0-9.208-8.38,2.008,2.008,0,0,1-.2-4.01,12.793,12.793,0,0,1,13.393,12.19,1.991,1.991,0,0,1-1.891,2.1A0.36,0.36,0,0,1,785.114,1152.15Z" transform="translate(-731.156 -1129.78)"/>
</svg>
