<svg xmlns="http://www.w3.org/2000/svg" width="76" height="76" viewBox="0 0 76 76">
  <defs>
    <style>
      .cls-1 {
        fill: #6d6d6d;
        fill-rule: evenodd;
      }
    </style>
  </defs>
  <path class="cls-1" d="M462,1193a38,38,0,1,1,38-38A38.045,38.045,0,0,1,462,1193Zm0-72a34,34,0,1,0,34,34A34.037,34.037,0,0,0,462,1121Zm0,63a29,29,0,1,1,29-29A29.034,29.034,0,0,1,462,1184Zm0-54a25,25,0,1,0,25,25A25.025,25.025,0,0,0,462,1130Zm9,27h-9a2,2,0,0,1-2-2v-9a2,2,0,0,1,4,0v7h7A2,2,0,0,1,471,1157Z" transform="translate(-424 -1117)"/>
</svg>
