<svg xmlns="http://www.w3.org/2000/svg" width="53.031" height="56" viewBox="0 0 53.031 56">
  <defs>
    <style>
      .cls-1 {
        fill: #fff;
        fill-rule: evenodd;
      }
    </style>
  </defs>
  <path class="cls-1" d="M795.13,506.4a26.627,26.627,0,0,0-1.89-30.37A26.527,26.527,0,0,0,751.754,509.1,26.772,26.772,0,0,0,772.6,519.117a26.083,26.083,0,0,0,8.749-1.5l11.522,4.2a2.962,2.962,0,0,0,1.026.182,3,3,0,0,0,2.965-3.426Zm-5.988.435,1.082,7.63-7.579-2.763a4.336,4.336,0,0,0-2.534-.034,20.11,20.11,0,0,1-7.526,1.448h0a20.742,20.742,0,0,1-16.142-7.754,20.608,20.608,0,0,1,3.293-28.9,20.494,20.494,0,0,1,28.817,3.3,20.531,20.531,0,0,1,.923,24.349A3.026,3.026,0,0,0,789.142,506.834Zm-20.326-30.6a2.97,2.97,0,0,0-1.211.258A20.522,20.522,0,0,0,756.423,488.9a3,3,0,1,0,5.7,1.86,14.513,14.513,0,0,1,7.91-8.775A3.005,3.005,0,0,0,768.816,476.236Z" transform="translate(-745.969 -466)"/>
</svg>
