<svg 
 xmlns="http://www.w3.org/2000/svg"
 xmlns:xlink="http://www.w3.org/1999/xlink"
 width="26px" height="25px">
<defs>
<filter filterUnits="userSpaceOnUse" id="Filter_0" x="0px" y="0px" width="26px" height="25px"  >
    <feOffset in="SourceAlpha" dx="0" dy="1" />
    <feGaussianBlur result="blurOut" stdDeviation="0" />
    <feFlood flood-color="rgb(255, 255, 255)" result="floodOut" />
    <feComposite operator="atop" in="floodOut" in2="blurOut" />
    <feComponentTransfer><feFuncA type="linear" slope="1"/></feComponentTransfer>
    <feMerge>
    <feMergeNode/>
    <feMergeNode in="SourceGraphic"/>
  </feMerge>
</filter>
<filter id="Filter_1">
    <feFlood flood-color="rgb(125, 125, 125)" flood-opacity="1" result="floodOut" />
    <feComposite operator="atop" in="floodOut" in2="SourceGraphic" result="compOut" />
    <feBlend mode="normal" in="compOut" in2="SourceGraphic" />
</filter>

</defs>
<g filter="url(#Filter_0)">
<g filter="url(#Filter_1)">
<path fill-rule="evenodd"  fill="rgb(255, 255, 255)"
 d="M6.966,23.285 C6.893,23.285 6.819,23.273 6.747,23.248 C6.481,23.155 6.300,22.904 6.294,22.620 L6.173,16.763 L0.495,13.891 C0.475,13.881 0.454,13.870 0.435,13.858 C0.412,13.843 0.390,13.828 0.369,13.811 C0.260,13.722 0.177,13.599 0.139,13.453 C0.132,13.429 0.127,13.403 0.124,13.378 C0.099,13.209 0.139,13.044 0.225,12.910 C0.225,12.910 0.225,12.910 0.225,12.909 C0.225,12.909 0.225,12.909 0.226,12.908 L0.226,12.908 C0.231,12.900 0.236,12.892 0.242,12.885 C0.242,12.884 0.242,12.884 0.243,12.884 C0.308,12.791 0.396,12.715 0.501,12.665 L24.667,0.443 C24.707,0.422 24.748,0.404 24.791,0.392 C24.828,0.381 24.865,0.373 24.902,0.369 C24.974,0.360 25.049,0.363 25.123,0.379 C25.196,0.395 25.268,0.423 25.335,0.465 C25.335,0.465 25.335,0.465 25.335,0.465 C25.403,0.508 25.462,0.562 25.510,0.623 C25.557,0.683 25.592,0.749 25.616,0.819 C25.630,0.860 25.640,0.902 25.647,0.944 C25.658,1.022 25.656,1.103 25.640,1.184 C25.630,1.232 25.614,1.280 25.593,1.326 L16.533,22.710 C16.504,22.783 16.463,22.850 16.412,22.908 C16.412,22.908 16.412,22.908 16.412,22.908 C16.412,22.908 16.412,22.908 16.412,22.908 C16.404,22.917 16.396,22.926 16.387,22.935 L16.387,22.935 C16.387,22.935 16.387,22.935 16.387,22.935 C16.386,22.935 16.386,22.936 16.386,22.936 C16.271,23.053 16.113,23.129 15.938,23.136 C15.931,23.136 15.924,23.136 15.918,23.136 L15.917,23.136 C15.914,23.137 15.912,23.136 15.909,23.136 C15.765,23.136 15.631,23.091 15.522,23.012 L10.401,19.441 L7.486,23.037 C7.356,23.197 7.164,23.285 6.966,23.285 ZM11.268,18.394 L15.205,21.140 L15.028,13.924 L11.268,18.394 ZM7.516,16.652 L7.600,20.752 L9.753,18.097 C9.755,18.095 9.757,18.092 9.759,18.090 C9.759,18.090 9.759,18.090 9.759,18.090 C9.759,18.090 9.759,18.090 9.759,18.089 C9.761,18.088 9.762,18.086 9.763,18.085 L19.389,6.643 L13.967,11.214 C13.957,11.222 13.947,11.231 13.936,11.239 L7.516,16.652 ZM16.335,12.371 L16.505,19.325 L22.614,4.908 L16.335,12.371 ZM2.841,13.558 L6.744,15.532 L11.058,11.896 L2.841,13.558 ZM20.103,4.271 L5.577,11.618 L13.222,10.071 L20.103,4.271 Z"/>
</g></g>
</svg>