<svg 
 xmlns="http://www.w3.org/2000/svg"
 xmlns:xlink="http://www.w3.org/1999/xlink"
 width="157px" height="95px">
<path fill-rule="evenodd"  fill="rgb(255, 255, 255)"
 d="M15.215,94.507 C14.476,94.507 13.751,94.286 13.136,93.872 C-0.315,84.830 -3.944,66.413 5.044,52.819 C9.396,46.236 16.024,41.750 23.707,40.191 C26.401,39.645 29.113,39.479 31.767,39.684 C31.655,39.199 31.639,38.685 31.730,38.164 C33.888,25.992 40.619,15.395 50.681,8.326 C60.743,1.257 72.931,-1.438 85.006,0.738 C101.356,3.685 114.397,15.130 119.948,30.073 C120.458,29.843 121.011,29.728 121.630,29.748 C133.044,30.218 143.360,35.884 149.928,45.293 C155.506,53.285 157.653,62.552 155.967,71.387 C154.308,80.098 149.004,88.011 141.034,93.667 C140.403,94.113 139.652,94.354 138.880,94.355 L15.219,94.507 L15.215,94.507 ZM29.543,47.160 C28.096,47.160 26.639,47.306 25.187,47.600 C19.463,48.763 14.524,52.105 11.281,57.011 C4.789,66.829 7.128,80.018 16.398,86.946 L137.654,86.799 C143.505,82.342 147.379,76.401 148.607,69.959 C149.923,63.060 148.259,56.034 143.798,49.644 C138.710,42.356 130.791,37.896 121.988,37.335 C122.535,40.144 122.830,43.040 122.847,45.990 C122.859,48.077 121.190,49.780 119.120,49.791 C119.113,49.791 119.106,49.791 119.099,49.791 C117.038,49.791 115.363,48.114 115.350,46.035 C115.244,27.388 101.927,11.466 83.688,8.178 C73.582,6.359 63.387,8.612 54.967,14.527 C46.547,20.442 40.916,29.309 39.109,39.495 C39.008,40.061 38.787,40.576 38.478,41.016 C41.016,41.845 43.455,43.031 45.736,44.565 C47.458,45.723 47.923,48.069 46.775,49.806 C45.626,51.541 43.298,52.014 41.578,50.854 C37.960,48.420 33.798,47.160 29.543,47.160 ZM101.504,42.132 C99.522,42.132 97.866,40.563 97.765,38.544 C97.306,29.384 89.486,22.305 80.464,22.774 C78.423,22.867 76.635,21.275 76.532,19.190 C76.428,17.105 78.019,15.329 80.086,15.224 C93.369,14.570 104.584,24.843 105.250,38.161 C105.355,40.247 103.764,42.022 101.696,42.127 C101.632,42.130 101.568,42.132 101.504,42.132 Z"/>
</svg>