<svg xmlns="http://www.w3.org/2000/svg" width="26" height="18" viewBox="0 0 26 18">
  <defs>
    <style>
      .cls-1 {
        fill: #fff;
        fill-rule: evenodd;
      }
    </style>
  </defs>
  <path id="Shape_15_copy" data-name="Shape 15 copy" class="cls-1" d="M508,2427.3a6.309,6.309,0,0,1-2.946-.3,3.158,3.158,0,0,0,2.833-1.69,4.654,4.654,0,0,1-3.065.34c-0.045-.21-0.094-0.42-0.144-0.6-0.687-2.54-3.044-4.59-5.512-4.34,0.2-.08.4-0.15,0.605-0.22,0.27-.1,1.865-0.36,1.615-0.93-0.213-.49-2.161.38-2.528,0.49a1.926,1.926,0,0,0,1.371-1.05,3.852,3.852,0,0,0-2.033.96,1.376,1.376,0,0,0,.39-0.77c-1.979,1.27-3.135,3.83-4.07,6.31a9.767,9.767,0,0,0-1.97-1.59,52.054,52.054,0,0,0-6.671-2.95,3.565,3.565,0,0,0,2.223,3.29,5.441,5.441,0,0,0-1.6.19c0.222,1.17.947,2.14,2.912,2.6a2.384,2.384,0,0,0-1.782.71,3.032,3.032,0,0,0,3.2,1.58c-2,.86-0.814,2.46.81,2.22a6.862,6.862,0,0,1-9.645.26c6.548,8.97,20.782,5.3,22.9-3.33A3.957,3.957,0,0,0,508,2427.3Z" transform="translate(-482 -2419)"/>
</svg>
